<svg width="40.492188" height="37.247559" viewBox="0 0 40.4922 37.2476" fill="none" xmlns="http://www.w3.org/2000/svg" xmlns:xlink="http://www.w3.org/1999/xlink">
	<desc>
			Created with Pixso.
	</desc>
	<defs/>
	<path id="Vector" d="M40.48 29.75C40.48 28.99 40.48 28.23 40.48 27.47L40.48 26.81C40.48 26.3 40.48 25.79 40.48 25.28C40.47 24.7 40.08 24.19 39.52 24.05C39.42 24.03 39.32 24.02 39.21 24.01C39.2 24.01 39.18 24.01 39.16 24.01L39.16 18.82C39.16 14.17 39.16 9.52 39.16 4.87C39.16 4 38.95 3.22 38.53 2.54C37.48 0.87 35.95 0.01 33.98 0.01C27.7 -0.01 21.32 0 15.14 0C12.25 0 9.35 0 6.45 0L6.61 0C5.83 0 5.08 0.14 4.4 0.43C2.43 1.26 1.27 2.99 1.29 5.07C1.31 8.02 1.3 11.03 1.3 13.94L1.29 14.99C1.29 16.53 2.39 17.46 3.41 17.67C3.81 17.75 4.07 17.76 4.47 17.77C4.63 17.78 4.79 17.78 4.95 17.79C5.08 17.8 5.23 17.8 5.37 17.8C5.39 17.8 5.52 17.8 5.54 17.79L5.54 21.07L5.15 21.07C4.77 21.07 4.38 21.07 4 21.07C3.11 21.07 2.36 21.08 1.45 21.06C1.03 21.06 0.66 21.19 0.4 21.45C0.13 21.72 -0.01 22.09 0 22.53C0.01 25.4 0.01 28.33 0.01 31.16C0.01 32.2 0.01 33.25 0.01 34.29L0.01 34.76C0 35.14 0 35.53 0.01 35.91C0.02 36.59 0.37 37.03 1.03 37.18C1.21 37.22 1.41 37.24 1.63 37.24C13.1 37.24 24.38 37.24 35.85 37.24L38.8 37.24L38.88 37.24C38.91 37.24 38.94 37.24 38.97 37.24C39 37.24 39.03 37.24 39.06 37.24C39.95 37.2 40.5 36.64 40.49 35.78C40.47 33.77 40.48 31.72 40.48 29.75ZM37.98 26.47L37.98 34.73L13.55 34.73L13.55 26.47L37.98 26.47ZM5.54 26.11C5.55 26.72 5.81 27.17 6.35 27.35C6.94 27.54 7.32 27.41 7.7 27.03C7.92 26.8 8.02 26.53 8.02 26.19C8.02 25.4 8.02 24.61 8.02 23.82C8.02 23.73 8.03 23.65 8.03 23.56L8.03 23.53C8.06 23.52 8.18 23.52 8.2 23.52C9 23.52 9.79 23.52 10.58 23.52L11.06 23.52L11.08 34.73L8.01 34.73C8 34.65 7.98 32.71 8 32.16C8.02 31.82 7.9 31.5 7.67 31.25C7.42 30.98 7.18 30.83 6.79 30.82C6.44 30.82 6.17 30.94 5.92 31.18C5.67 31.43 5.53 31.77 5.52 32.15C5.52 32.68 5.52 33.22 5.52 33.76L5.52 34.73L2.51 34.73L2.51 23.54L5.54 23.54L5.54 24.5C5.54 25.04 5.54 25.57 5.54 26.11ZM3.79 4.95C3.79 3.52 4.88 2.63 5.96 2.49C6.27 2.45 6.57 2.43 6.88 2.43C14.99 2.43 24.62 2.43 33.95 2.43C35.01 2.43 35.82 2.85 36.36 3.66C36.59 4.01 36.7 4.44 36.7 5.03C36.69 6.72 36.69 8.41 36.69 10.11L36.69 24.01L24.3 24.01L24.3 21.22C24.3 16.88 24.3 12.55 24.3 8.22C24.3 8.03 24.3 7.84 24.24 7.66C24.1 7.16 23.63 6.81 23.08 6.77C23.03 6.76 22.99 6.76 22.94 6.76L22.89 6.76L20.26 6.76C17.38 6.76 14.5 6.76 11.63 6.76C10.87 6.76 10.34 7.18 10.23 7.84C10.21 7.94 10.21 8.05 10.21 8.15L10.21 8.22L10.21 14.73L10.21 14.81C10.21 14.88 10.21 14.95 10.21 15.01C10.2 15.29 10.17 15.32 9.91 15.32C9.73 15.33 9.56 15.33 9.39 15.33L9.15 15.33L4.23 15.33C3.83 15.33 3.79 15.29 3.79 14.88L3.79 11.49C3.79 9.31 3.79 7.13 3.79 4.95ZM13.55 23.08C13.55 23 13.55 22.92 13.55 22.84C13.56 22.63 13.56 22.42 13.53 22.2C13.45 21.52 12.98 21.09 12.3 21.08C11.68 21.06 9.88 21.06 8.68 21.07L8.03 21.07L8.03 17.79L8.15 17.79C8.24 17.79 8.33 17.79 8.41 17.79C8.61 17.79 8.8 17.79 9 17.79C9.43 17.79 9.71 17.78 10.15 17.75C11.38 17.66 12.7 16.62 12.69 15.1C12.68 13.79 12.68 12.45 12.68 11.16C12.69 10.61 12.69 10.05 12.69 9.49L12.69 9.21L21.83 9.21L21.83 24L13.56 24L13.56 23.79C13.55 23.55 13.55 23.31 13.55 23.08Z" fill="#FFFFFF" fill-opacity="1.000000" fill-rule="nonzero"/>
	<path id="Vector" d="M30.4 13.54C31.26 13.54 32.12 13.27 32.82 12.71C34 11.76 34.4 10.27 33.83 8.91C33.29 7.61 31.86 6.76 30.19 6.76L30.19 6.76C29.51 6.77 28.75 7.03 28.12 7.49C27.33 8.04 26.84 8.85 26.73 9.77C26.62 10.67 26.89 11.55 27.49 12.24C28.22 13.1 29.31 13.54 30.4 13.54ZM29.16 10.18C29.16 9.91 29.28 9.63 29.51 9.41C29.76 9.18 30.07 9.05 30.39 9.06C31.04 9.08 31.6 9.61 31.59 10.18C31.58 10.76 31.04 11.23 30.38 11.23C30.38 11.23 30.38 11.23 30.38 11.23C29.72 11.22 29.17 10.76 29.16 10.18Z" fill="#FFFFFF" fill-opacity="1.000000" fill-rule="nonzero"/>
	<path id="Vector" d="M33.07 17.77C32.82 17.67 32.57 17.64 32.4 17.64C31.73 17.62 29.11 17.63 28.47 17.63C28.25 17.64 28.05 17.66 27.87 17.71C27.4 17.84 27.03 18.27 26.98 18.74C26.93 19.25 27.19 19.71 27.65 19.92C27.89 20.03 28.16 20.09 28.43 20.09C29.05 20.1 29.67 20.1 30.29 20.1C30.8 20.1 31.32 20.1 31.83 20.1L32.32 20.1C32.48 20.1 32.65 20.08 32.8 20.05C33.33 19.95 33.75 19.52 33.8 19.02C33.85 18.46 33.58 17.98 33.07 17.77Z" fill="#FFFFFF" fill-opacity="1.000000" fill-rule="nonzero"/>
</svg>
