<svg width="50.435547" height="31.615479" viewBox="0 0 50.4355 31.6155" fill="none" xmlns="http://www.w3.org/2000/svg" xmlns:xlink="http://www.w3.org/1999/xlink">
	<desc>
			Created with Pixso.
	</desc>
	<defs/>
	<path id="Vector" d="M5.99 27.3C6.86 27.31 7.74 27.31 8.62 27.31L10.24 27.31L10.28 27.42C11.2 30.15 13.69 31.48 15.74 31.58C18.99 31.75 21.24 30.35 22.44 27.42L22.48 27.32L32.12 27.32L32.16 27.42C33.25 30.2 35.25 31.61 38.1 31.61C38.11 31.61 38.11 31.61 38.12 31.61C41.08 31.61 43.13 30.2 44.23 27.42L44.27 27.31L46.04 27.31C47.03 27.31 48.01 27.31 49 27.31C49.85 27.3 50.42 26.75 50.42 25.92C50.43 23.65 50.43 21.33 50.43 19.09L50.43 16.64C50.43 16.29 50.31 15.98 50.07 15.71C49.83 15.42 46.84 12.38 46.67 12.08C45.16 9.38 43.73 6.6 42.19 3.79C41.84 3.14 41.36 2.85 40.63 2.85C40.63 2.85 40.62 2.85 40.62 2.85C39.15 2.86 37.9 2.86 36.45 2.86L33.76 2.85L33.76 2.68C33.76 2.52 33.76 2.36 33.76 2.21C33.76 1.87 33.76 1.63 33.76 1.31C33.75 0.93 33.59 0.61 33.27 0.36C32.96 0.11 32.58 0 32.1 0C23.39 0 15.03 0 6.33 0C6.1 0 5.87 0.01 5.66 0.05C5.07 0.14 4.58 0.65 4.54 1.2C4.5 1.81 4.89 2.28 5.49 2.44C5.76 2.51 6.05 2.52 6.28 2.52C13.27 2.53 20.27 2.53 27.26 2.53L31.24 2.53L31.24 8.93C31.24 9.3 31.24 9.67 31.24 10.04C31.24 10.96 31.24 11.91 31.25 12.85C31.25 13.51 31.75 14.06 32.41 14.13C32.66 14.16 32.94 14.17 33.24 14.17C36.96 14.18 40.81 14.18 44.6 14.17C44.6 14.17 44.6 14.17 44.6 14.17C44.98 14.17 45.23 14.29 45.46 14.56C45.46 14.56 47.03 16.01 47.63 16.71L47.67 16.75C47.81 16.91 47.88 17.12 47.88 17.33C47.88 18.91 47.92 24.77 47.92 24.77L44.28 24.77L44.24 24.59C43.23 21.53 40.51 20.37 38.5 20.32C35.41 20.24 33.26 21.66 32.12 24.55L32.08 24.77L22.49 24.77C22.47 24.63 22.42 24.48 22.37 24.35C21.27 21.69 19.26 20.33 16.4 20.31C16.38 20.31 16.35 20.31 16.33 20.31C13.44 20.31 11.47 21.69 10.35 24.4C10.31 24.52 10.27 24.63 10.24 24.75L8.76 24.75C7.9 24.75 7.03 24.75 6.17 24.76C5.94 24.76 5.75 24.77 5.58 24.81C5.14 24.91 4.78 25.14 4.62 25.55C4.47 25.91 4.51 26.31 4.72 26.63C5 27.08 5.43 27.3 5.99 27.3ZM33.78 11.63L33.78 5.42C33.78 5.42 38.79 5.39 39.68 5.39C40 5.39 40.21 5.5 40.35 5.77C41.04 7.03 41.75 8.38 42.43 9.61L43.51 11.63L33.78 11.63L33.78 11.63ZM34.64 25.51C34.72 24.74 35.09 24.11 35.79 23.59C36.5 23.07 37.33 22.81 38.27 22.84C39.33 22.88 40.21 23.25 40.9 23.96C41.46 24.53 41.73 25.2 41.72 25.95C41.75 27.4 40.58 28.67 38.94 28.99C38.64 29.04 38.36 29.07 38.08 29.07C37.14 29.07 36.29 28.75 35.54 28.11C34.82 27.49 34.53 26.66 34.64 25.51ZM12.79 25.81C12.8 24.94 13.29 24.13 14.16 23.53C15.59 22.53 17.66 22.66 18.96 23.82C20.15 24.89 20.28 26.54 19.27 27.76C18.59 28.58 17.53 29.05 16.39 29.05C16.28 29.05 16.18 29.04 16.07 29.04C14.81 28.94 13.72 28.3 13.15 27.31C12.91 26.9 12.8 26.45 12.79 25.81L12.79 25.81Z" fill="#FFFFFF" fill-opacity="1.000000" fill-rule="nonzero"/>
	<path id="Vector" d="M18.25 5.99C18.07 5.93 17.85 5.9 17.61 5.9C16.45 5.9 13.62 5.89 10.83 5.89C8.05 5.89 5.29 5.9 4.19 5.9C3.9 5.9 3.61 5.96 3.4 6.05C2.96 6.23 2.67 6.6 2.62 7.04C2.57 7.49 2.77 7.93 3.15 8.21C3.43 8.41 3.78 8.51 4.24 8.51L7.36 8.51C10.75 8.51 14.13 8.51 17.51 8.51C17.71 8.51 17.91 8.49 18.1 8.45C18.69 8.33 19.14 7.84 19.17 7.29C19.21 6.69 18.84 6.18 18.25 5.99Z" fill="#FFFFFF" fill-opacity="1.000000" fill-rule="nonzero"/>
	<path id="Vector" d="M16.53 13.19C16.64 12.76 16.52 12.38 16.18 12.04C15.89 11.74 15.5 11.6 14.91 11.6C14.91 11.6 14.91 11.6 14.91 11.6L9.99 11.61C7.22 11.61 4.45 11.61 1.67 11.61C1.49 11.61 1.28 11.63 1.08 11.66C0.55 11.76 0.09 12.21 0.01 12.72C-0.08 13.28 0.19 13.78 0.71 14.02C0.98 14.14 1.3 14.21 1.59 14.21C3.83 14.23 12.72 14.22 14.94 14.22C15.11 14.22 15.36 14.21 15.58 14.14C16.1 13.98 16.41 13.67 16.53 13.19Z" fill="#FFFFFF" fill-opacity="1.000000" fill-rule="nonzero"/>
	<path id="Vector" d="M12.86 18.79C12.93 18.19 12.55 17.61 11.94 17.43C11.76 17.38 11.53 17.35 11.26 17.35C9.41 17.34 7.56 17.34 5.7 17.34L4.38 17.34L4.25 17.34C4.21 17.34 4.16 17.34 4.12 17.34C4.04 17.34 3.96 17.35 3.88 17.35C3.44 17.38 3.04 17.61 2.81 17.97C2.59 18.3 2.55 18.7 2.68 19.05C2.87 19.56 3.38 19.91 3.95 19.92C5.25 19.93 11.09 19.93 11.6 19.91C12.23 19.88 12.79 19.38 12.86 18.79Z" fill="#FFFFFF" fill-opacity="1.000000" fill-rule="nonzero"/>
</svg>
