<svg width="46.498047" height="42.703613" viewBox="0 0 46.498 42.7036" fill="none" xmlns="http://www.w3.org/2000/svg" xmlns:xlink="http://www.w3.org/1999/xlink">
	<desc>
			Created with Pixso.
	</desc>
	<defs/>
	<path id="Vector" d="M3.02 41.24C3.03 39.64 3.26 38.06 3.7 36.52C4.56 33.6 6.12 30.98 8.36 28.75C8.85 28.26 9.38 27.8 9.89 27.37C10.12 27.17 10.36 26.97 10.59 26.76L10.91 26.47L12.22 27.67C14.61 29.86 20.21 35 22.16 36.78C22.83 37.39 23.72 37.39 24.39 36.79C25.32 35.96 34.37 27.57 35.15 26.81L35.4 26.57L35.77 26.76C35.81 26.78 35.86 26.81 35.91 26.85C40.79 30.6 43.33 35.45 43.46 41.27C43.47 41.47 43.5 41.65 43.55 41.78C43.83 42.44 44.55 42.81 45.27 42.67C46.02 42.52 46.5 41.94 46.49 41.2C46.47 39.58 46.29 38.09 45.94 36.67C45.06 33.11 43.27 29.91 40.62 27.17C38.22 24.69 35.34 22.82 31.81 21.47C31.64 21.4 31.46 21.34 31.28 21.28C31.18 21.24 31.09 21.21 30.99 21.18L30.25 20.92L30.87 20.32C30.92 20.27 30.96 20.24 31 20.21C31.86 19.56 32.58 18.86 33.19 18.07C35.11 15.59 35.87 12.98 35.52 10.08C35.16 7.08 33.7 4.58 31.21 2.65C28.36 0.43 25 -0.4 21.22 0.17C17.95 0.66 15.28 2.17 13.28 4.66C11.24 7.19 10.49 10.07 11.05 13.22C11.46 15.58 12.65 17.66 14.57 19.4C14.81 19.61 15.05 19.81 15.31 20.02C15.44 20.13 15.57 20.24 15.71 20.35L16.34 20.87L15.45 21.22C15.37 21.25 15.31 21.27 15.25 21.29C12.8 22.12 10.55 23.3 8.57 24.79C5.09 27.41 2.6 30.71 1.17 34.58C0.37 36.77 -0.03 39.02 0 41.26C0 41.45 0.02 41.6 0.06 41.72C0.28 42.39 1 42.78 1.76 42.66C2.51 42.54 3.02 41.97 3.02 41.24ZM15.12 15.57C13.28 12.66 13.55 8.89 15.78 6.18C17.42 4.18 19.6 3.04 22.26 2.77C25.07 2.49 27.55 3.25 29.65 5.03C31.69 6.77 32.7 8.98 32.63 11.59C32.59 13.61 31.84 15.4 30.42 16.92C28.5 18.97 26.12 19.95 22.93 19.99L22.92 19.99L22.9 19.99C19.55 19.84 16.85 18.31 15.12 15.57ZM14.2 24.69C17.14 23.35 20.11 22.71 23.28 22.71C23.28 22.71 23.28 22.71 23.28 22.71C26.44 22.71 29.41 23.35 32.36 24.69L33.02 24.99L23.28 33.93L13.54 24.99L14.2 24.69Z" fill="#FFFFFF" fill-opacity="1.000000" fill-rule="nonzero"/>
	<path id="Vector" d="M11.41 37.33C11.4 37.33 11.39 37.33 11.38 37.33C10.55 37.34 9.97 37.89 9.96 38.66C9.95 39.08 9.95 40.83 9.96 41.28C9.97 42.04 10.57 42.61 11.38 42.61C12.18 42.62 12.83 42.05 12.84 41.31C12.86 40.38 12.86 39.48 12.84 38.62C12.83 37.87 12.22 37.33 11.41 37.33Z" fill="#FFFFFF" fill-opacity="1.000000" fill-rule="nonzero"/>
	<path id="Vector" d="M36.02 37.33C35.96 37.33 35.9 37.34 35.83 37.34C35.18 37.38 34.63 37.97 34.63 38.61C34.62 39.47 34.62 40.36 34.63 41.32C34.63 41.67 34.77 41.99 35.03 42.23C35.3 42.48 35.67 42.61 36.07 42.61C36.07 42.61 36.07 42.61 36.08 42.61C36.88 42.61 37.48 42.05 37.49 41.32L37.48 38.54C37.48 38.39 37.44 38.24 37.39 38.13C37.15 37.6 36.69 37.33 36.02 37.33Z" fill="#FFFFFF" fill-opacity="1.000000" fill-rule="nonzero"/>
</svg>
