<svg width="49.000000" height="48.000000" viewBox="0 0 49 48" fill="none" xmlns="http://www.w3.org/2000/svg" xmlns:xlink="http://www.w3.org/1999/xlink">
	<desc>
			Created with Pixso.
	</desc>
	<defs/>
	<path id="Vector" d="M9.43 26.3C9.02 26.63 8.66 26.92 8.3 27.22C7.53 27.85 6.69 27.73 6.12 26.91C4.18 24.13 2.25 21.35 0.31 18.57C-0.22 17.8 -0.08 17.06 0.72 16.6C3.81 14.79 6.9 12.99 10 11.22C10.39 10.99 10.88 10.92 11.33 10.84C13.85 10.37 16.39 9.95 18.9 9.45C19.85 9.26 20.76 8.9 21.69 8.62C22.08 8.5 22.46 8.38 22.85 8.28C23.07 8.22 23.16 8.11 23.15 7.86C23.14 7.25 23.14 6.65 23.15 6.04C23.17 5.24 23.67 4.76 24.45 4.7C24.72 4.68 25 4.61 25.22 4.48C25.87 4.07 25.88 3.25 25.26 2.8C24.63 2.33 23.66 2.55 23.35 3.23C23.29 3.35 23.27 3.5 23.26 3.64C23.2 4.27 22.81 4.72 22.21 4.87C21.65 5 21.02 4.74 20.73 4.23C20.5 3.83 20.55 3.38 20.64 2.96C20.99 1.42 22 0.51 23.45 0.14C24.81 -0.21 26.07 0.07 27.17 1C28.74 2.34 28.79 4.78 27.25 6.15C26.89 6.47 26.44 6.67 26.05 6.94C25.95 7 25.85 7.11 25.84 7.21C25.81 7.52 25.83 7.84 25.83 8.18C26.74 8.45 27.64 8.71 28.52 9C30.29 9.59 32.13 9.84 33.95 10.18C35.42 10.47 36.9 10.72 38.38 11C38.63 11.05 38.88 11.16 39.09 11.29C42.13 13.3 45.16 15.32 48.18 17.33C48.26 17.38 48.33 17.43 48.41 17.49C49.07 17.98 49.18 18.68 48.68 19.34C47.9 20.38 47.11 21.41 46.32 22.44C45.18 23.93 44.04 25.42 42.89 26.9C42.22 27.78 41.5 27.87 40.61 27.2C40.28 26.96 39.95 26.71 39.56 26.42C39.56 26.63 39.56 26.77 39.56 26.91C39.56 33.42 39.56 39.92 39.56 46.43C39.56 47.52 39.1 48 38.02 48C33.54 48 16.03 47.99 11.76 47.98C11.42 47.98 11.08 47.97 10.75 47.97C10.13 47.98 9.42 47.47 9.42 46.62C9.43 40.41 9.43 34.19 9.43 27.98C9.43 27.45 9.43 26.91 9.43 26.3ZM45.75 18.85C45.68 18.79 45.65 18.75 45.61 18.73C43.26 17.16 40.92 15.6 38.57 14.05C38.14 13.77 37.74 13.46 37.19 13.36C35.66 13.11 34.14 12.81 32.61 12.52C32 12.41 31.39 12.31 30.79 12.2C29.48 15.19 27.35 16.71 24.43 16.63C21.42 16.55 19.29 15.12 18.16 12.2C18.11 12.2 18.03 12.2 17.96 12.21C15.96 12.58 13.95 12.94 11.95 13.32C11.64 13.38 11.3 13.44 11.03 13.59C8.54 15.02 6.07 16.46 3.59 17.9C3.47 17.97 3.36 18.05 3.23 18.14C4.71 20.25 6.15 22.33 7.61 24.42C7.75 24.31 7.85 24.23 7.95 24.14C8.61 23.6 9.25 23.05 9.92 22.52C10.36 22.17 10.87 22.12 11.38 22.37C11.89 22.61 12.12 23.05 12.11 23.62C12.11 23.74 12.11 23.86 12.11 23.98C12.11 30.97 12.11 37.97 12.11 44.96C12.11 45.1 12.11 45.25 12.11 45.41C20.39 45.41 28.63 45.41 36.89 45.41C36.89 45.22 36.89 45.06 36.89 44.9C36.89 39.64 36.89 34.38 36.89 29.11C36.89 27.37 36.88 25.62 36.88 23.88C36.88 23.18 37.31 22.68 37.98 22.55C38.42 22.47 38.8 22.6 39.14 22.87C39.88 23.43 40.62 23.98 41.38 24.55C42.84 22.64 44.29 20.75 45.75 18.85ZM28.11 11.55C26.99 11.21 25.88 10.87 24.76 10.54C24.59 10.49 24.38 10.49 24.2 10.54C23.39 10.76 22.59 11.01 21.78 11.26C21.47 11.36 21.16 11.47 20.84 11.57C21.34 13.23 22.92 14.19 24.9 14.08C26.36 14 27.85 12.83 28.11 11.55Z" fill="#FFFFFF" fill-opacity="1.000000" fill-rule="nonzero"/>
</svg>
